<?xml version="1.0" encoding="UTF-8"?>
<svg version="1.1" viewBox="0 0 2048 2048" width="4096" height="4096" xmlns="http://www.w3.org/2000/svg">
<path transform="translate(814,759)" d="m0 0 3 1-11 8-28 15-22 14-19 14-16 13-13 11-11 9-11 10-11 9-7 7-8 7-13 12-17 16-43 43-7 8-16 17-7 8-9 10-9 11-9 10-18 22-13 16-9 12-13 18-20 30-10 17-12 23-7 16 5-4 18-20 12-14 7-7 7-8 9-10 12-13 7-8 15-16 7-8 16-17 12-13 29-31 9-9 7-8 10-10 7-8 12-12 9-2 26-3-6 7-16 16-7 8 11-7 15-10 24-13 12-5 4-1h14l5 4v7l-5 13-10 15-11 14-12 14-12 13-14 15-21 21 16-6 16-8 20-20 7-8h2l2-4 48-48 8-7 23-23 35-3-2 4-22 22-7 8-7 7 8-6 17-12 20-12 17-8 15-5 6-1h13l5 2 3 4-1 7-6 12-8 10-9 10-8 9-13 4-30 8-4 1v-2l9-7 10-9 10-10 7-11 1-6h-10l-17 8-18 12-17 13-11 9-13 11-14 12-20 18-12 11-13 12-10 10-8 7-18 18-8 7-14 14-4 3-31 5-4-1 22-22 7-8 18-18 4-5 4-4-19 10-19 9-11 10-14 11-13 10-20 12-15 6-17 3-10-2-4-4v-8l1-6-15 16-7 8-12 13-7 8-11 12-7 8-10 11-7 8-6 8v2l-5 3-12 13-7 8-12 14-9 10-9 11-21 6-14 3 4-6 9-10 9-11 10-11 7-8 12-14 8-9-1-5-3-7v-8l4-17 6-15 8-17 13-22 15-22 13-18 15-20 9-11 13-16 2-3-27 2h-21l-12 13-9 9-7 8-24 24-7 8-10 10-7 8-8 8-7 8-17 17-3 4h-2l-2 4-8 7-15 15-8 7-13 12-11 9-14 12-17 13-16 12-23 16-24 14-21 11-25 10-21 5-10 1-10-2-8-5-4-8-1-4v-9l3-16 6-17 8-17 10-17 10-15 14-19 9-11 11-13 11-12 24-24 11-9 15-12 20-14 20-12 27-14 26-11 30-10 21-5 20-3h40l15 1 14-14h2v-2h2v-2l8-7 29-29 8-7 8-8 8-7 13-12 11-9 11-10 11-9 13-11 17-13 18-14 16-11 15-10 25-15 24-13 24-11 34-14 29-10zm-57 25m-3 1-22 9-25 12-23 13-24 15-16 11-18 13-21 16-14 11-11 9-13 11-11 9-12 11-8 7-12 11-13 12-11 11-8 7-31 31-7 8-1 3h33l12-1 5-5 9-10 7-8 12-13 7-8 15-16 54-54 8-7 7-7 8-7 11-10 11-9 14-12 34-26 20-14 21-13 16-9zm-81 177-16 8-14 10-16 13-11 9-16 15-12 11-11 11-8 7-15 15-7 8-11 12-12 16-5 10-1 8 2 3 7 1 9-4 14-9 22-18-3-2-5-1 2-5 9-10 11-7 4-2 9 1 5-4 21-21 6-7 19-19 7-8 11-13 11-16 3-7-1-5zm99 9m-139 6m-1 1m-258 42-20 3-19 5-20 7-20 9-23 11-20 12-19 13-17 13-11 9-14 12-7 7-8 7-11 11-7 8-9 10-8 10-13 17-12 18-10 18-6 14-3 12v14l4 8 7 5 8 2h8l15-3 19-7 16-8 16-10 14-10 11-9 14-12 7-7 8-7 15-15 2-1v-2h2v-2l4-2 7-8 38-38 7-8 30-30 7-8 22-22 7-8 35-35v-2l-14-1z" fill="#FEFEFE"/>
<path transform="translate(1472,799)" d="m0 0h51l30 4 28 7 18 7 16 9 12 11 7 9 4 10v18l-4 13-6 11-9 11-7 7-13 10-18 11-25 12-27 10-30 9-26 6-32 6 20 6 10 6 6 7 2 5v14l-4 11-6 10-9 11-8 8-14 11-10 7-15 9-25 13-27 11-36 12-48 12-39 7-32 4-28 2h-29l-30-3-18-4-15-5-11-6-12-9-8-10-4-8 1-4 5-4h2l7 14 9 10 11 7 13 6 14 4 22 3 21 1 28-2 32-5 26-6 31-9 35-12 31-13 30-14 22-12 17-10 16-12 10-9 8-9 5-11 1-4v-8l-4-8-9-8-11-5-5-2 4-2 38-9 36-12 29-13 25-13 18-12 14-11 10-10 8-11 6-11 2-7v-17l-4-10-7-9-8-7-14-8-15-6-23-5-21-2h-24l-26 2-30 5-25 6-36 12-29 12-33 16-19 10-27 16-17 11-20 14-13 10-16 13-12 11-17 17-11 14-9 14-5 11-3 11v14l4 9 5 6 10 6 10 4 19 3h7l14-9 12-8 19-13 34-24 20-14 43-30 33-22 19-12 24-14 27-14 23-10 20-7 13-4 25-5 8-1h28l-3 2-33 11-24 10-33 16-26 14-53 31-48 30-25 16-19 12-25 15-21 12-22 12-27 14-36 16-14 6-3-1 17-9 20-12-22-4-15-5-12-7-7-7-6-12-1-5v-8l3-14 5-12 7-13 10-14 13-15 15-15 11-9 9-8 20-15 23-16 26-15 20-11 23-11 21-9 24-9 24-8 30-8 31-6z" fill="#FEFEFE"/>
<path transform="translate(1611,992)" d="m0 0h16l12 3 8 4 5 6 1 2v10l-6 12-11 13-10 10-22 18-14 10-1 2 20-1 16-10 36-24 20-13 17-11 14-9 8 1 25 7 2 2-15 11-20 14-2 2 16-7 20-6 16-3 18-1 13 2 12 5 6 7-1 8-5 8-8 9-18 13-35-3-9-1 3-3 17-9 11-9 5-8-3-5-4-1h-11l-17 4-19 7-29 14-20 10-21 12-17 10-23 14-26 16-11 7-5 1-30-6-2-2 11-8 32-22 19-13h-11l-12 1-15 9-21 11-20 8-21 5h-19l-12-4-5-5-2-4v-7l4-11 5-9 10-13 11-12 7-7 11-9 17-13 19-12 18-10 15-7 14-5 15-4zm9 14-13 4-23 11-11 7-9 7-6 9-2 6v7l3 7 5 7 5-1 19-14 16-13 11-9 12-12 6-10-2-5-2-1zm-87 49-12 10-10 8-11 10v2l-3 1-9 11-3 6v5l4 3h9l15-6 17-9 14-9v-3l-7-5-3-8v-9l1-7z" fill="#FEFEFE"/>
<path transform="translate(1129,824)" d="m0 0h24l12 1-4 5-11 9-14 12-11 9-14 12-13 11-42 36-10 9-11 9-13 12-8 7-10 9-8 7-10 9-8 7-11 10-8 7-13 12-10 9-13 12-10 9-10 12-3 6v5h9l17-8 26-16 31-21 18-13 17-12 11-8 2 1-11 9-19 14-20 15-19 13-24 16-20 12-23 12-12 4h-14l-6-4-1-2v-7l4-10 10-14 12-13 7-7-9 6-17 13-23 16-21 13-23 12-13 4h-8l-6-3-2-2v-10l7-14 9-12 12-13 21-21 8-7 15-15 8-7 8-8 8-7 9-9 8-7 7-7 8-7 17-16 9-7 34-1v2l-11 9-9 9-8 7-13 12-15 14-12 11-16 15-15 14-8 8-8 7-12 12-8 7-11 13-5 8v5l5 1 11-4 16-9 18-12 20-14 38-28 12-11 8-7 14-13 8-7 12-11 8-7 11-10 8-7 10-9 8-7 14-12 11-10 11-9 12-11 11-9 10-9 11-9 15-13 11-9z" fill="#FEFEFE"/>
<path transform="translate(1852,1056)" d="m0 0 7 1 27 9 1 2-16 9-27 16h2l33-8 24-4h23l10 3 10 6 4 5v6l-6 9-8 8-18 13-26 15-21 12-22 13-12 9-7 8-1 4 4 4h16l24-6 36-12 44-17 10-4 3 1-29 13-30 12-36 13-25 7-20 3h-12l-8-2-6-3-6-7v-9l4-8 9-10 11-9 21-13 26-15 23-13 12-8 9-8v-6l-4-3-5-1h-10l-14 3-24 8-27 12-25 12-27 14-23 13-18 10-17 10-7 3-31-8-2-2 23-15 41-26 48-30 20-12 28-17z" fill="#FEFEFE"/>
<path transform="translate(1e3 860)" d="m0 0h11l4 4-1 7-5 8-8 8-10 6-9 4-4 1h-8l-4-3 1-9 6-9 9-8 10-6z" fill="#FEFEFE"/>
<path transform="translate(1033,989)" d="m0 0 2 1-4 2z" fill="#FEFEFE"/>
<path transform="translate(1037,986)" d="m0 0 2 1h-3z" fill="#FEFEFE"/>
<path transform="translate(1148,1081)" d="m0 0 2 1z" fill="#FEFEFE"/>
<path transform="translate(1966,1156)" d="m0 0" fill="#FEFEFE"/>
<path transform="translate(1035,988)" d="m0 0" fill="#FEFEFE"/>
<path transform="translate(1039,985)" d="m0 0" fill="#FEFEFE"/>
<path transform="translate(1040,984)" d="m0 0" fill="#FEFEFE"/>
<path transform="translate(1041,983)" d="m0 0" fill="#FEFEFE"/>
</svg>
