<?xml version="1.0" encoding="UTF-8"?>
<svg version="1.1" viewBox="0 0 2048 2048" width="700" height="700" xmlns="http://www.w3.org/2000/svg">
<path transform="translate(707,718)" d="m0 0h12l9 5 7 8 7 14 4 14 3 21 2 31 3 14 4 6 3 3-3 12-5 8-4 3-5 1-4 10-6 8-8 8-4 2-7-1-5-4-1-4 2-6v-6h-7l-6-5-6-12-2-8 8-5 4-5 5-13 2-14-2-18-5-10-2-1h-8l-5 5-5 8-5 14-7 28-3 19-2 21v14l6 88 5 70 2 12 5 10 4 3h8l6-4 3 1 2 9 10 5 4 6 1 3v7l-5 6-5 2-7-1-2-2-1-4-4 5-5 3h-10l-4-2 1 14 5 15 8 16 6 14 3 14v19l8-16 6-10 4-5 5-3 9-3h8l4 3-2 5-8 11-9 15-10 25-2 8 8-7 8-11 8-15 7-22 2-11 2-2 8 1 5 4 3 8 8-7 10-4h11l8 4 3 5 1 7-3 10-12 23-7 14-1 4 8-7 10-14 11-23 9-12 10-7 10-4 4-1h11l6 3 5 5 2 5v8l-4 10-7 8-7 4-7-1-5-5v-7l4-7 7-5 3-1v-2l-7 1-8 7-8 15-3 11v12l2 6h9l8-5 7-8 14-25 8-13 5-6 9-6 11-4h10l8 4 4 6v14l-5 10-9 10-10 5-4 1h-12l2 15 1 2 9-1 10-7 11-15 5-7 8 1 2 2v6l-9 16-10 11-11 7-11 3-10-1-10-4-6-7-1-2-4 2-7 6-11 5-4 1h-14l-8-4-7-8-1-3-3 1-4 5-7 5-6 2h-13l-6-4-4-5-2-5v-7l4-12 7-12 10-16 2-4-6 3-11 14-10 16-11 23-4 5-5 3h-17l-3 1h-13l-5-3-4-5-2-6v-8l-7 12-9 9-10 7-16 8-16 5-18 2h-14l-11-2-10-4-9-7-7-8-5-10-2-11 1-14 5-15 7-12 11-12 8-7 14-8 18-6 5-1h16l10 4 7 8 2 10-2 9-6 10-9 10-11 8-13 6-14 3-11 1-7-2-2-2v-6l3-3 17-2 16-7 10-7 8-8 4-8-1-7-4-2h-11l-12 4-10 6-11 9-10 13-5 11-2 8v14l6 12 7 6 8 3h24l13-4 12-7 10-9 7-11 4-10 2-15-1-17-5-15-7-17-4-17v-11l2-4-10 1-9-6-3-1-6 7-9 3-8-1-5-4-5-10-2-8v-13l4 1 8 1 5-2 3-9 1-4v-12l-7-87-2-11-4-8-9-10-7-5 2-4 6-10 5-14 2-13v-15l-3-36-2-11-4-8-1-1h-9l-6 3-2 2h-3l-2-14 3-19 5-13 7-10 10-6 9-1 10 3 3-9 7-11 7-4h7l6 4 4 9 3 21 2 28 1 5 3-20 5-18 8-18 7-12 8-8 10-6zm-87 100 4 60v26l-4 11-4 4v2l6 4 4 7 3 18 5 53 1 13h3l3-15v-33l-3-50-4-48-5-35-4-12zm285 350-5 3-10 13-3 6v2l7-2 7-6 4-8 1-8zm-206 27 1 2z" fill="#F8EEEB"/>
<path transform="translate(1167,553)" d="m0 0 8 1 5 4 5 10 2 13v21l-4 125v4l11-14 11-9 14-7 5-1h10l12 3 14 7 10 9 8 13 6 16 5 22 3 26 3 65 3 16 5 13 7 10-2 4-8 7-6 10-4 14-7 47-7 34-7 24-9 22-9 14-10 10-10 6-9 3h-17l-12-6-11-9-8-9-5-7-4 4-7 9-4 5-11 7-6 2h-8l-9-2-6-4-1-1v-6l2-8 2-34 2-93v-24l-2-12-8-13-8-10 2-4 8-7 5-9 4-13 1-17 2-91 1-48v-61l-3-12-4-6-4-3-5-1-9 3-1-1-1-7v-8l3-12 6-10 8-6 8-2 15 1 11 3 2-5 4-6 5-5zm-1 117-5 8-3 12-2 20-2 42-3 132-1 57v22l2 21 4 11 3 1v-20l4-137 5-169zm43 76-8 3-7 7-7 14-5 19-2 17-1 15-4 122-1 43 1 17 4 17 5 12 5 8 7 6 8 1 8-4 6-7 5-11 4-15 3-22 2-29 5-114v-60l-2-14-4-12-4-6-7-6-4-1zm46 40-3 60-6 130-1 25 4-2 4-12 3-21 3-40 3-61 1-37v-16l-1-13-5-12z" fill="#F8EEEB"/>
<path transform="translate(1423,739)" d="m0 0h12l15 4 14 8 13 12 9 11 9 16 7 15 7 21 5 24 2 20 2 39 3 14 8 16 2 5-11 7-6 10-4 13-8 38-6 21-8 20-8 16-10 14-11 11-14 9-11 4 8 4 7 8 4 8 3 13v10l-3 15-5 13-7 13-10 13-13 13-14 10-15 7-11 3-8 1h-13l-12-3-10-6-8-8-5-10-2-8v-13l3-15 6-15 9-15 12-14 10-9 13-9 12-6 12-3-10-5-10-9-6-7-8-13-8-19-6-23-4-23-2-19-1-17-1-32-2-10-5-12-8-11 1-4 7-6 8-16 5-21 5-27 6-21 6-16 8-15 10-14 12-12 10-7 13-5zm12 44-10 4-6 8-5 11-5 21-3 25-9 122-1 15v42l3 15 4 9 4 6 10 5 8-1 7-4 7-9 5-12 4-18 3-22 7-83 4-49 1-20v-13l-2-22-4-13-6-10-9-6zm-53 25-6 12-6 20-12 57-6 7-2 1 1 4 5 8 1 4 3 46 3 25 4 20 4-1v-20l-2-36v-34l2-24 5-34 8-43v-11zm97 24-1 20-13 155-1 10v9l5-4 4-13 4-27 5-49 4-55v-35l-4-9zm-77 286-11 4-13 9-11 11-7 10-8 15-4 13-2 12v9l3 11 7 8 4 2h17l10-4 9-6 9-8 10-14 9-17 4-13 1-5v-22l-5-10-5-4-3-1z" fill="#F8EEEB"/>
<path transform="translate(489,784)" d="m0 0h15l9 4 9 7 9 14 7 19 6 24 8 43 5 15 6 10 2 4 4 2 4 3-2 4-7 10-4 9-2 17-1 49-3 31-5 25-6 16-6 11-9 10-9 6-7 3-5 1h-17l-10-3-11-6-7-6 2 17 7 75 2 12 5 10 4 3 7 1 4-3h2l2 5 1 12-3 9-4 5-4 2h-11l-8-5-4-2-5 5-4 2h-13l-8-6-4 2-5 4h-14l-6-4-4-5-3-7v-14l6 2h7l5-6 2-7v-10l-17-179-3-21-4-8-5-5-10-6 2-4 5-8 5-15 1-6v-18l-3-30-3-10-3-4-7 1-8 6h-4l-1-14 3-15 5-12 4-6 7-7 9-4h11l3-9 6-10 5-4 4-2h8l4 5 3 9v8l3-3 7-14 9-12 11-11 17-9zm-22 49-8 5-6 7-5 10-4 14-2 18v14l5 58 8 80 3 15 4 10 7 10 7 7 4 2h9l7-4 6-7 4-13 2-18v-12l-3-41-9-96-4-27-5-16-4-8-7-7zm40 17 2 26 12 131 2 27h3l3-9 1-10v-11l-4-57-5-50-4-29-4-13-4-5zm-105 39 3 27 2 27v18l-3 9-4 4v3l9 6 3 15 7 63 5 53 1 16 3-1 3-11v-27l-8-93-7-67-5-30-5-10z" fill="#F8EEEB"/>
<path transform="translate(948,547)" d="m0 0 9 2 6 7 3 10 1 8 1 53 2 176 1 45 2 11 7 11 10 11-1 4-7 7-6 10-3 9-1 5v65l1 51 4 13 5 6 6 1 5-4h3l1 7v16l-3 9-7 8-5 2h-7l-8-4-6-5-6 7-3 2h-10l-6-3-7-6-7 7-7 3h-7l-6-4-5-6-4-13v-9l1-9 6 3h7l5-5 4-12v-44l-1-48-1-23-2-11-6-11-12-12 1-4 9-9 6-12 2-10v-37l-3-133-1-32-2-18-4-11-5-4-6-1-8 4h-3l-1-5v-16l4-11 7-11 5-4 9-3h23l6-12 7-8zm-22 120v29l2 98v66l-2 13-6 9-3 2 1 3 5 4 5 10 2 29 1 25v38h3l3-8 3-21 1-44-2-111-3-98-1-18-4-18-4-8z" fill="#F8EEEB"/>
<path transform="translate(288,802)" d="m0 0 5 2 3 3 2 6v8l-10 6-4 5-4 16 1 10 21 65 5 13 5 8 8 5 12 3-2 4-6 8-3 9v12l9 27 13 36 14 40 6 15 5 4 2 1 9-1 6-4h2l1 5v14l-4 9-5 4-9 3-9-1-8-4-2 4-8 5-3 1h-14l-8-3-2 4-7 4-4 1h-8l-8-3-5-6-2-4v-11h12l8-5-4-16-10-34v-3l-36 12-41 15-7 40 1 5 3 3 3 1h9l11-5 1 1 1 10-3 8-7 6-7 2h-8l-4-1-8 5-4 1h-8l-5-1-8 5-3 1h-9l-5-5-1-3v-7l1-1 12-2 9-5 4-7 10-43 8-41 2-14v-7l-2-7-3-3-5-2 2-5 7-9 6-14 5-21 6-43 4-35v-7l-3-1-5 3-10 11-2-1v-8l4-16 6-11 11-11 5-2h5l6-11 7-9 8-6 9-2h2l2-5 6-9 8-9zm-38 94 14 48 16 49 13 40 14 40 4 10h2v-12l-3-17-7-24-8-26-3-13v-13l3-6 1-3-9-2-4-4-6-14-14-40-5-9-5-4zm-14 7-1 1-7 62-9 68-4 27v5l5-1 41-17 17-7 1-3-20-64-17-55-5-16z" fill="#F8EEEB"/>
<path transform="translate(1576,805)" d="m0 0h9l8 4 9 9 5-5 8-4 7 1 7 6 4 8 1 4v22l-2 20v6l9-19 7-9 9-8 9-3h9l14 7 7 7 8 13 5 15 2 15v19l-1 8v21l5 11-6 8-3 2h-8l-7 6-7 3h-8l-8-4-3-6 2-5 2-6-5-2-5-4-4-10-2-12h8l6-4 6-9 2-12-1-13-4-8-4-3-9 1-5 4-7 10-8 15-7 19-4 16-4 36-10 103 1 11 4 8 4 3 8 1 7-1-1 13-3 8-4 5-6 3h-8l-8-3-8-7-8 5-7 1-9-3-5-4-1-2-4 1-5 3-9 1-7-2-6-7-3-9v-9l1-8h4l4 2h6l6-4 4-10 8-81v-18l-5-12-8-12-1-4 8-6 6-7 5-12 3-16 3-33v-9l-2-9-5-5-6-3h-9v-13l3-11 4-8 4-5zm17 65-2 28-4 34-3 13-5 6-5 3 6 8 2 5v21l-4 46v11l4-4 4-11 4-22 5-44 4-48v-34l-3-10z" fill="#F8EEEB"/>
<path transform="translate(1739,885)" d="m0 0 8 2 6 4 10 10 6-4 9 1 7 6 4 7 2 10v10l-1 16 9-10 10-5h9l10 3 10 7 10 9 9 12 8 15 6 18 3 15 1 8 1 31 2 12 7 11 5 7-1 1-10 2-3 4-1 10-1 47 3 8 1 3 4 2 12 2 1 4-2 8-5 4h-11l-8-4-4-3-4 1h-13l-8-5-5-2-4 2-11-1-6-4-4-5-2-6 1-12 5 2 7 2 5-5 4-63 2-39v-30l-3-17-6-12-8-7-4-2h-10l-7 6-5 10-2 8-3 34-7 93 1 10 5 6h10v12l-4 7-8 4-8-1-6-4-2-2-5 1-3 1h-9l-7-3-5-5-4 1-5 2h-10l-8-5-4-6-1-3v-17l4 1 8 3 7-3 3-5 2-14 5-55v-15l-7-14-7-10 2-2 8-3 5-4 3-7 3-25 1-12v-15l-3-9-9-7-7-1-1-1v-10l4-12 5-5 5-3zm17 59-2 15-3 30-2 12-5 6-5 2 7 11 1 5-1 30-2 23v6l4-2 3-6 3-15 4-34 3-41v-32l-3-10zm85 46 2 12 1 8v50l-3 55 4-1 3-4 2-8 2-23 1-18v-35l-2-16-4-12-4-8z" fill="#F8EEEB"/>
<path transform="translate(822,699)" d="m0 0h9l5 3 5 9 2 9 1 10 4 104 1 19 2 11 4 8 11 12 4 4-9 10-5 8-4 14v27l3 83 1 11 6 11 4 3 7-1 5-4 2 5 1 16-4 13-7 7-5 2h-6l-10-6-4-3-6 7-3 2h-12l-6-3-4-4-3-1-2 4-6 5-3 1h-10l-6-4-6-11-1-4v-20l6 2 7 1 5-5 4-11-1-36-3-63-2-21-5-10-9-10-6-7 10-11 5-11 2-9v-26l-2-39-2-13-4-9-4-2h-7l-5 3-4 3-2-4-1-6v-12l3-14 5-12 5-8 5-5 8-4h11l9 4h2l4-11 9-10zm-18 86 2 54v34l-2 9-8 12 7 6 4 8 2 17 3 45 1 27 1 2h2l3-10 1-8v-71l-2-47-3-43-3-19-3-10-4-6z" fill="#F8EEEB"/>
<path transform="translate(601,1149)" d="m0 0 2 1-16 12-10 11-6 9-3 5-3 9-1 18 2 11 6 10 6 7 8 5 11 4 5 1h26l14-3 17-7 10-6 11-8 9-13 6-14 4-18 1-10h1v19l8-16 6-10 4-5 5-3 9-3h8l4 3-2 5-8 11-9 15-10 25-2 8 8-7 8-11 8-15 7-22 2-11 2-2 8 1 5 4 3 8 8-7 10-4h11l8 4 3 5 1 7-3 10-12 23-7 14-1 4 8-7 10-14 11-23 9-12 10-7 10-4 4-1h11l6 3 5 5 2 5v8l-4 10-7 8-7 4-7-1-5-5v-7l4-7 7-5 3-1v-2l-7 1-8 7-8 15-3 11v12l2 6h9l8-5 7-8 14-25 8-13 5-6 9-6 11-4h10l8 4 4 6v14l-5 10-9 10-10 5-4 1h-12l2 15 1 2 9-1 10-7 11-15 5-7 8 1 2 2v6l-9 16-10 11-11 7-11 3-10-1-10-4-6-7-1-2-4 2-7 6-11 5-4 1h-14l-8-4-7-8-1-3-3 1-4 5-7 5-6 2h-13l-6-4-4-5-2-5v-7l4-12 7-12 10-16 2-4-6 3-11 14-10 16-11 23-4 5-5 3h-17l-3 1h-13l-5-3-4-5-2-6v-8l-7 12-9 9-10 7-16 8-16 5-18 2h-14l-11-2-10-4-9-7-7-8-5-10-2-11 1-14 5-15 7-12 11-12 8-7zm304 19-5 3-10 13-3 6v2l7-2 7-6 4-8 1-8zm-206 27 1 2z" fill="#F8EEEB"/>
<path transform="translate(1157,1102)" d="m0 0 16 2 10 4 8 6 7 10 3 9 1 7v11l-3 14-6 15-6 11-9 12-15 15-13 9-15 7-11 3-8 1h-13l-11-3-8-4-10-9-7-14-1-7v-9l3-16 5-13 7-13 8-11 11-12 16-12 16-8 9-3zm-8 16-9 3-11 6-12 11-9 11-9 16-5 15-1 5v21l5 10 6 5 3 1h16l11-4 12-9 10-11 11-18 6-15 3-17v-10l-2-8-3-6-6-5-3-1z" fill="#F8EEEB"/>
<path transform="translate(1281,1102)" d="m0 0 13 1 12 3 10 6 8 11 4 12v20l-3 12-7 16-8 13-9 11-10 10-13 9-16 8-12 3-8 1h-12l-12-3-10-6-7-6-7-14-1-5v-16l4-16 8-18 9-13 11-12 9-8 14-9 10-5 15-4zm-6 16-11 4-11 7-14 14-10 15-5 11-4 14-1 6v14l3 9 5 7 6 3h17l12-5 9-7 5-4 10-13 10-18 5-17 1-5v-19l-4-9-4-5-5-2z" fill="#F8EEEB"/>
<path transform="translate(1023,1105)" d="m0 0h10l17 4 10 6 5 5 4 8v16l-3 10-7 10-10 10-15 10-26 12-19 9-14 10 9 3 18 3 10-1 16-5 7-6v-7l-3-5 1-4 4-3 8 1 7 6 3 8v10l-3 8-6 8-12 6-10 2h-22l-14-2-12-3h-14l-5 4-7-1-4-6 1-9 4-8 8-9 14-10 16-9 26-13 11-8 9-10 4-9 1-4v-12l-5-6-8-3h-11l-12 6-6 7-3 8 1 9 2 6-3 3h-10l-6-4-4-6-1-3v-10l6-12 4-5 10-7 13-5z" fill="#F8EEEB"/>
<path transform="translate(804,532)" d="m0 0h10l7 3 6 5 6 10 9 21 7 10 6 5-2 4-8 11-6 15-6 17-6 10-5 6-7 4-4 1h-7l-8-4-7-6-7-11-7-16-6-8-5-4-3-2 1-4 7-11 5-12 7-21 7-12 7-7zm-6 27-5 4-5 13-6 17-1 6 13 24 8 5h3l-3-9-4-15v-27l4-18z" fill="#F8EEEB"/>
<path transform="translate(601,1149)" d="m0 0 2 1-16 12-10 11-6 9-3 5-3 9-1 18 2 11 6 10 6 7 8 5 11 4 5 1h26l14-3 17-7 10-6 11-8 9-13 6-14 4-18 1-10h1v19l8-16 6-10 4-5 5-3 9-3h8l4 3-2 5-8 11-9 15-10 25-2 8 8-7 8-11 8-15 7-22 2-11 2-2 8 1 5 4 3 8 8-7 10-4h11l8 4 3 5 1 7-3 10-12 23-2 1 2-6 8-16 3-11-1-8-4-5-10-1-10 3-10 7-4 1-2-3-2-7-3-3-4 1-3 8-5 15-8 21-8 13-9 11-6 1-2-2 1-8 7-20 8-16 6-10 7-10-12 2-7 3-4 4-9 17-6 14-4 13v12l3 6 5 2h10l10-3h8l6-3 5-8 6-14 13-23 8-10 8-7 7-1 1 5-10 18-8 13-4 13v7l3 9 9 6-7-1-7-6-3-7v-7l4-12 7-12 10-16 2-4-6 3-11 14-10 16-11 23-4 5-5 3h-17l-3 1h-13l-5-3-4-5-2-6v-8l-7 12-9 9-10 7-16 8-16 5-18 2h-14l-11-2-10-4-9-7-7-8-5-10-2-11 1-14 5-15 7-12 11-12 8-7zm98 46 1 2z" fill="#FDFDFD"/>
<path transform="translate(845,1155)" d="m0 0h11l6 3 5 5 2 5v8l-4 10-7 8-7 4-7-1-5-5v-7l4-7 7-5 3-1v-2l-7 1-8 7-8 15-3 11v12l2 6h9l8-5 7-8 14-25 8-13 5-6 9-6 11-4h10l8 4 4 6v14l-5 10-9 10-10 5-4 1h-12l2 15 1 2 9-1 10-7 11-15 5-7 8 1 2 2v6l-9 16-10 11-11 7-11 3-10-1-10-4-6-7-1-2-4 2-7 6-11 5-4 1h-14l-8-4-7-8-1-3-3 1-4 5-7 5-3-1 8-6 9-10 3 3 5 10 8 4 13 1 8-2 9-6 9-9 3 1 5 10 7 4 8 2h8l10-4 8-6 8-9 7-13 1-6-5 2-7 12-11 12-9 5h-9l-4-3-1-3v-16l1-3 16-1 8-4 8-9 4-9 1-4v-7l-3-7-7-3-11 1-9 4-8 6-1 2h-2l-2 4-11 23-7 14-9 10-8 5h-10l-5-4-2-7 1-16 5-16 7-11 9-8 2-1h7l3 3 1 4-4 4-6 4-3 5v6l3 2 7 1v-2l4-4 6-11v-9l-4-6-4-2h-15l-8 3-9 6-7 8-8 16-7 15-7 10-9 10-5-1-1-1 1-9 6-11 1 2-5 11-1 4 8-7 10-14 11-23 9-12 10-7 10-4z" fill="#FDFDFD"/>
<path transform="translate(1023,1105)" d="m0 0h10l17 4 10 6 5 5 4 8v16l-3 10-7 10-10 10-15 10-26 12-19 9-14 10 9 3 18 3 10-1 16-5 7-6v-7l-3-5 1-4 4-3h5l-4 1 3 13-3 7-5 4-12 6-8 2h-15l-21-4-5-2-1-5 14-10 15-8 23-10 21-11 11-9 7-10 3-5 1-8v-10l-4-11-5-4-13-5-5-1h-19l-15 3-12 5-9 8-4 8v13l3 6 3 2 6 1-1-15 5-12 6-7 10-5 3-1h15l9 4 5 6 1 3v10l-4 13-6 8-5 5-10 8-16 9-16 8-19 11-10 8-5 6-2 6-1 10 8-1 17-1 10 3 23 3h12l11-2 9-4 6-4 4-8 2-13 2 1v10l-3 8-6 8-12 6-10 2h-22l-14-2-12-3h-14l-5 4-7-1-4-6 1-9 4-8 8-9 14-10 16-9 26-13 11-8 9-10 4-9 1-4v-12l-5-6-8-3h-11l-12 6-6 7-3 8 1 9 2 6-3 3h-10l-6-4-4-6-1-3v-10l6-12 4-5 10-7 13-5z" fill="#FDFDFD"/>
<path transform="translate(659,1099)" d="m0 0h2v20l2 11 6 16 6 15 2 10v21l-4 15-6 12-9 11h-2v2l-11 7-10 4-12 3h-17l-12-3-8-5-7-8-3-8v-20l4-12 5-10 9-11 9-9 16-9 11-3h13l5 3 3 6-2 10-7 10-8 8-11 6-9 4-6 2-14 2v3l4 2 13-1 15-5 11-6 12-11 4-5 5-10 1-8-1-9 3 3 2 10-2 9-6 10-9 10-11 8-13 6-14 3-11 1-7-2-2-2v-6l3-3 17-2 16-7 10-7 8-8 4-8-1-7-4-2h-11l-12 4-10 6-11 9-10 13-5 11-2 8v14l6 12 7 6 8 3h24l13-4 12-7 10-9 7-11 4-10 2-15-1-17-5-15-7-17-4-17v-11l2-4-10 1-4-2 1-2 9 1z" fill="#FCFCFC"/>
<path transform="translate(1404,1113)" d="m0 0h13l8 4 4 5 4 10v21l-4 17-5 13-9 15-9 12-9 9-16 8-4 1h-14l-9-4-5-4-3-5-2-13v-11l2-14 4-11 2-1 1-6 5-8 2-4h2l2-5 8-11 10-9 14-7zm-2 5-11 4-13 9-11 11-7 10-8 15-4 13-2 12v9l3 11 7 8 4 2h17l10-4 9-6 9-8 10-14 9-17 4-13 1-5v-22l-5-10-5-4-3-1z" fill="#FDFDFD"/>
<path transform="translate(1150,1113)" d="m0 0h14l6 3 6 8 3 8v22l-5 19-6 13-8 13-10 13-10 9-11 5-7 2h-12l-11-4-6-7-2-5-1-7v-9l2-18 4-12 6-12 3-5 4-6 10-13 3-3h2v-2l11-7 10-4zm-1 5-9 3-11 6-12 11-9 11-9 16-5 15-1 5v21l5 10 6 5 3 1h16l11-4 12-9 10-11 11-18 6-15 3-17v-10l-2-8-3-6-6-5-3-1z" fill="#FDFDFD"/>
<path transform="translate(1277,1113)" d="m0 0h13l7 3 5 6 4 13v18l-4 17-8 18-12 18-13 13-12 7-7 2h-15l-10-5-5-6-3-10v-15l3-17 4-11 8-15 7-10 7-9 9-8 14-7zm-2 5-11 4-11 7-14 14-10 15-5 11-4 14-1 6v14l3 9 5 7 6 3h17l12-5 9-7 5-4 10-13 10-18 5-17 1-5v-19l-4-9-4-5-5-2z" fill="#FDFDFD"/>
<path transform="translate(1157,1102)" d="m0 0 16 2 10 4 8 6 7 10 3 9 1 7v11l-3 14-6 15-6 11-9 12-15 15-13 9-15 7-11 3-8 1h-13l-11-3-8-4-10-9-7-14-1-7v-9l3-16 5-13 7-13 8-11 11-12 16-12 16-8 9-3zm-9 4-11 2-12 5-13 8-11 9-7 7-11 14-9 17-4 12-1 18 2 13 6 10 6 7 8 5 11 3h18l12-3 9-4 15-8 13-11 9-9 8-11 9-19 5-16v-19l-3-10-8-11-16-8-5-1z" fill="#FDFDFD"/>
<path transform="translate(1281,1102)" d="m0 0 13 1 12 3 10 6 8 11 4 12v20l-3 12-7 16-8 13-9 11-10 10-13 9-16 8-12 3-8 1h-12l-12-3-10-6-7-6-7-14-1-5v-16l4-16 8-18 9-13 11-12 9-8 14-9 10-5 15-4zm-7 4-15 4-16 8-9 7-10 9-11 11-8 14-6 17-3 14v14l4 12 4 6 8 8 8 4 11 2h15l10-2 15-6 13-8 11-9 7-7 10-13 8-15 6-19 1-5v-12l-3-13-8-11-11-7-10-3z" fill="#FDFDFD"/>
<path transform="translate(1390,1099)" d="m0 0 10 2 10 3-4 2-11 2-13 5-16 9-10 8-16 17-6 11-6 15-3 10-1 8v9l3 13 3 6 7 8 8 5 13 3h15l10-2 13-5 12-7 9-7 10-9 7-8 7-11 7-14 4-13 2-6 1 4-5 17-9 17-10 13-13 13-14 10-15 7-11 3-8 1h-13l-12-3-10-6-8-8-5-10-2-8v-13l3-15 6-15 9-15 12-14 10-9 13-9 12-6 12-3-7-3z" fill="#FDFDFD"/>
<path transform="translate(715,1077)" d="m0 0 4 4 2 5v7l-5 6-5 2-7-1-2-2-1-4-4 5-5 3h-10l-4-2 1 14 5 15 8 16 6 14 2 8-1 4-2-5-4-14-15-30-3-15 1-10 4-8 8-6 4-2h11l3 5 2 7 7-1 1-1v-9z" fill="#FDFDFD"/>
<path transform="translate(948,547)" d="m0 0 9 2 6 7 3 10 1 8 1 53 2 176v31l-2-1-1-48-3-208-3-16-4-6-4-3h-8l-7 2-2 5-5 7-2-1 7-11 6-5z" fill="#FCFCFC"/>
<path transform="translate(738,1129)" d="m0 0 9 3 3 4 1 5-3 7-8 5-5 1-6-3-3-3-1-8 3-6z" fill="#FDFDFD"/>
<path transform="translate(658,1149)" d="m0 0 3 3 2 10-2 9-6 10-9 10-11 8-13 6-14 3-11 1-7-2-2-2v-6l3-3h12l-4 2-5 1v3l4 2 13-1 15-5 11-6 12-11 4-5 5-10 1-8z" fill="#FDFDFD"/>
<path transform="translate(1809,932)" d="m0 0h9l10 3 10 7 10 9 9 12 8 15 6 18 3 15 1 8 1 31 2 12 3 5-1 2-5-8-2-16-1-29-4-21-5-13-10-18-8-10-5-6-6-5v-2l-5-2-9-3-8-1-8 1v-2z" fill="#FDFDFD"/>
<path transform="translate(1390,1099)" d="m0 0 10 2 10 3-4 2-11 2-13 5-16 9-10 8-16 17h-2l2-4 9-11 7-7 15-11 14-7 12-3-7-3z" fill="#FCFCFC"/>
<path transform="translate(905,1165)" d="m0 0 4 2v9l-4 9-7 7-8 4-5-1-1-4 6-12 9-11zm0 3-5 3-10 13-3 6v2l7-2 7-6 4-8 1-8z" fill="#FDFDFD"/>
<path transform="translate(736,1133)" d="m0 0h8l2 3v8l-3 5-2 1h-6l-5-4v-9z" fill="#F8EEEB"/>
<path transform="translate(1224,700)" d="m0 0h10l12 3 14 7 10 9 8 13 6 16 1 6h-2l-4-12-11-20-4-5-9-7-10-5-9-2h-14l-11 4-11 8-2-1 7-6 14-7z" fill="#FDFDFD"/>
<path transform="translate(1437,740)" d="m0 0 11 2 11 6 11 8 10 10 9 13 11 21 4 10v2h-2l-7-17-12-19v-2h-2l-6-9-4-5-17-12-11-5-6-1z" fill="#FDFDFD"/>
<path transform="translate(1666,837)" d="m0 0h9l14 7 7 7 8 13 4 11v3h-2l-4-11-6-8-3-5-8-9-7-4-4-1-13 1-8 4 1-3 8-4z" fill="#FDFDFD"/>
<path transform="translate(1167,553)" d="m0 0 8 1 5 4 5 10 2 13v21l-1 5h-1l-1-26-3-15-4-6-3-2h-13l-5 3 1-3z" fill="#FDFDFD"/>
<path transform="translate(822,699)" d="m0 0h9l5 3 5 9 2 9 1 10v9l-2-1-4-26-3-5-3-3h-13l-6 7-2 4-1-3 6-8z" fill="#FDFDFD"/>
<path transform="translate(904,570)" d="m0 0h16l6 1-1 2-22 1-9 3-7 8-5 12v19l1 4h-3l-1-5v-16l4-11 7-11 5-4z" fill="#FDFDFD"/>
<path transform="translate(804,532)" d="m0 0h10l7 3 6 5 6 10 9 21 2 4-3-1-6-12-7-16-4-5v-2l-5-2-3-1h-15l-8 5-5 4 2-4 7-6z" fill="#FDFDFD"/>
<path transform="translate(1122,569)" d="m0 0 15 1v2h-17l-10 5-5 5-4 11-1 4v8l2 4 6 1v2l-9 3-1-1-1-7v-8l3-12 6-10 8-6z" fill="#FDFDFD"/>
<path transform="translate(911,857)" d="m0 0h2l-1 6-4 9-6 9-1 5 9 15 3 7h-2l-6-10-11-11 1-4 9-9 6-12z" fill="#FDFDFD"/>
<path transform="translate(1121,834)" d="m0 0 2 4v10l-3 14-6 11-7 7-1 5 8 12 3 5-1 2-8-11-7-9 2-4 8-7 5-9 4-13z" fill="#FCFCFC"/>
<path transform="translate(1886,1159)" d="m0 0h8l1 4-2 8-5 4h-11l-8-4-4-3 1-2 7 4 11 1 5-3 1-4-1-2-3-1z" fill="#FDFDFD"/>
<path transform="translate(499,784)" d="m0 0 8 1 9 5 6 5 9 14 7 19-2 2-3-8-4-9-10-16-1-3-4-2-6-4-9-2z" fill="#FDFDFD"/>
<path transform="translate(707,718)" d="m0 0h12l9 5 7 8 7 14 1 4h-2l-6-14-6-8-7-5-3-1h-11l-10 3-9 7-4 4-2-1 8-8 10-6z" fill="#FDFDFD"/>
<path transform="translate(288,802)" d="m0 0 5 2 3 3 2 6v8l-10 6h-3l6-5 5-1-2-10-2-3h-9l-6 4-7 7v-3l8-9z" fill="#FDFDFD"/>
<path transform="translate(1347,857)" d="m0 0h2l-2 13-4 12-5 10-7 9 1 6 6 12h-2l-7-11-3-4 1-4 7-6 8-16z" fill="#FDFDFD"/>
<path transform="translate(905,627)" d="m0 0h2l2 6 1 7 1 2v53h-1l-1-13-1-32-2-18z" fill="#FCFCFC"/>
<path transform="translate(192,1087)" d="m0 0h2l-2 14-5 23-4 18-5 10-2 1 1-4 3-8 10-44z" fill="#FCFCFC"/>
<path transform="translate(1809,1136)" d="m0 0 5 2-1 2h-2v10l5 6 7 3 12 1v2l-4 2-11-1-6-4-4-5-2-6z" fill="#FDFDFD"/>
<path transform="translate(1423,739)" d="m0 0h12l1 2-20 2-10 4-9 6-12 11-8 10v-3l7-9 10-10 10-7 13-5z" fill="#FDFDFD"/>
<path transform="translate(785,717)" d="m0 0h11l5 2-1 2-5-1-13 2-6 4-7 9-4 9-2-1 8-16 4-5z" fill="#FDFDFD"/>
<path transform="translate(398,1224)" d="m0 0 6 2-4 4v6l3 6 9 8 4 2 11-1v2l-2 1h-14l-6-4-4-5-3-7z" fill="#FCFCFC"/>
<path transform="translate(1431,1106)" d="m0 0 6 2 8 6 7 10 4 16v10l-2 1-2-19-6-12-8-7-7-4z" fill="#FDFDFD"/>
<path transform="translate(154,1159)" d="m0 0h6l1 2-3 1v6l4 3 5 1 9-3 2-1-1 3-9 4h-9l-5-5-1-3v-7z" fill="#FDFDFD"/>
<path transform="translate(282,1125)" d="m0 0 10 1v2h-6v6l5 8 5 4 2 2-7-1-6-5-3-6z" fill="#FCFCFC"/>
<path transform="translate(1769,897)" d="m0 0 9 1 7 6 4 7 2 10v9h-2l-2-16-5-9-3-3-9-2-5 2 2-4z" fill="#FCFCFC"/>
<path transform="translate(843,742)" d="m0 0h1l1 12 1 28v17l-2 1-1-14z" fill="#FDFDFD"/>
<path transform="translate(790,869)" d="m0 0 1 4-4 9-4 6-3 5 1 6 7 11-4-2-11-11 6-8 5-6 4-9z" fill="#FDFDFD"/>
<path transform="translate(774,615)" d="m0 0 3 1 8 17 4 5v2h2v2h2l3 4v2l5 2 6 2-3 2-8-4-7-6-7-11-7-16z" fill="#FDFDFD"/>
<path transform="translate(691,1089)" d="m0 0 6 1v5l-6 5 1 2h-8l3-10z" fill="#F8EEEB"/>
<path transform="translate(1704,1114)" d="m0 0 4 1 2 1v2l-3 1-1 8 4 10v2l4 2 13 2v2h-10l-8-5-4-6-1-3z" fill="#FDFDFD"/>
<path transform="translate(702,830)" d="m0 0 2 1-7 8-3 2 1 7 6 10 5 4 2 1v2l-5-1-5-4-6-12-2-8 8-5z" fill="#FDFDFD"/>
<path transform="translate(1615,809)" d="m0 0 7 1 7 6 4 8 1 4v8l-2-1-3-13-2-5-4-2-5-2h-8v-2z" fill="#FDFDFD"/>
<path transform="translate(993,1048)" d="m0 0h3l1 7v16l-3 9-6 7-2-1 6-8 3-12-1-12-4-1 2-4z" fill="#FDFDFD"/>
<path transform="translate(230,1138)" d="m0 0 2 1 1 10-3 8-7 6-5 1v-2l6-4 5-5 1-8-5-2v-2z" fill="#FDFDFD"/>
<path transform="translate(1739,885)" d="m0 0 8 2 6 4 8 8h-3l-5-4-9-5-9-1-5 1 3-3z" fill="#FCFCFC"/>
<path transform="translate(739,865)" d="m0 0 1 3-6 8-8 8-4 2-7-1-5-4-1-4 1-3h2l1 5 4 4h6l8-7 7-9z" fill="#FCFCFC"/>
<path transform="translate(904,570)" d="m0 0h16l6 1-1 2-22 1-8 1 3-3z" fill="#FDFDFD"/>
<path transform="translate(493,1221)" d="m0 0h2l2 5 1 12-3 9-4 5-6 2-1-2 6-2 4-7 1-3v-9l-2-6h-2z" fill="#FDFDFD"/>
<path transform="translate(599,916)" d="m0 0 2 1-2 6 3 6 10 13-2 1-7-9-10-8 2-4z" fill="#FCFCFC"/>
<path transform="translate(1576,805)" d="m0 0h9l8 4 2 4-7-4-4-1h-8l-6 3-7 8-2-1 6-8z" fill="#FDFDFD"/>
<path transform="translate(1360,1062)" d="m0 0h2l8 15 7 9 7 8v3l-11-11-8-13-5-10z" fill="#FDFDFD"/>
<path transform="translate(1632,1100)" d="m0 0h4l-1 13-3 8-4 5-5 2v-2l6-5 3-6v-12h-3v-2z" fill="#FDFDFD"/>
<path transform="translate(1174,1069)" d="m0 0 7 6 8 7 4 3v2l5 2 3 3-5-1-13-10-9-10z" fill="#FDFDFD"/>
<path transform="translate(637,735)" d="m0 0h7l6 4 2 5h-2l-4-5-6-1-8 3-4 5-1 2h-2l2-5 5-5z" fill="#FDFDFD"/>
<path transform="translate(701,1062)" d="m0 0 3 1 2 9 3 2-8-1v-5l-2-1-4 2h-6l1-2 9-3z" fill="#FDFDFD"/>
<path transform="translate(1730,996)" d="m0 0v3l-5 2 2 8 5 10h-2l-9-14-2-4 10-4z" fill="#FDFDFD"/>
<path transform="translate(1125,640)" d="m0 0h2l1 29-3 1z" fill="#FCFBFB"/>
<path transform="translate(1124,695)" d="m0 0 2 1 1 4-1 24h-2z" fill="#FCFAFA"/>
<path transform="translate(767,592)" d="m0 0 2 1-2 3v6l1 4h2l4 6-4-2-6-5-3-2 1-4z" fill="#FCFCFC"/>
<path transform="translate(722,720)" d="m0 0 6 3 7 8 7 14 1 4h-2l-6-14-6-8-7-5z" fill="#FCFCFC"/>
<path transform="translate(1122,569)" d="m0 0 15 1v2h-17l-10 5-5 2 5-5 7-4z" fill="#FCFCFC"/>
<path transform="translate(1653,923)" d="m0 0 8 1v1h-6l5 16 3 5-1 2-4-5-4-12z" fill="#FCFCFC"/>
<path transform="translate(1841,1163)" d="m0 0 12 3h10v2l-2 1h-13l-7-4z" fill="#FDFDFD"/>
<path transform="translate(1789,1132)" d="m0 0h4v12l-4 7-3 2-3-1 4-1 2-4 2-13h-2z" fill="#FDFDFD"/>
<path transform="translate(420,813)" d="m0 0h8l4 5h-3v-2h-9l-6 3-4 5-2-1 6-7z" fill="#FCFCFC"/>
<path transform="translate(917,1017)" d="m0 0h2l1 15-3 10h-2l1-6z" fill="#FCFCFC"/>
<path transform="translate(385,1103)" d="m0 0h2l1 5v14h-2l-1-14h-4l1-3z" fill="#FDFDFD"/>
<path transform="translate(602,1087)" d="m0 0h2l3 10 4 5v2l6 2-4 1-5-4-5-10z" fill="#FCFCFC"/>
<path transform="translate(383,977)" d="m0 0 2 1 1 5 5 6-1 2-9-6-2-1 2-4z" fill="#FDFDFD"/>
<path transform="translate(854,873)" d="m0 0 3 1 7 8 6 5-5 6-2-1 2-2-1-5-8-8z" fill="#FDFDFD"/>
<path transform="translate(1184,615)" d="m0 0 2 1v16l-1 2h-2v-11z" fill="#FCFCFC"/>
<path transform="translate(895,1072)" d="m0 0 2 2 4 8 7 6 3 3-5-1-7-6-4-8z" fill="#FCFCFC"/>
<path transform="translate(1881,1069)" d="m0 0 5 5 4 6-1 1-9 1v-2h3v-6z" fill="#FDFDFD"/>
<path transform="translate(1666,958)" d="m0 0h2l2 7 5 4 4 2-3 1-8-4-3-6z" fill="#FDFDFD"/>
<path transform="translate(880,599)" d="m0 0 2 1v16l1 4h-3l-1-5v-15z" fill="#FCFBFA"/>
<path transform="translate(601,1072)" d="m0 0 4 1 3 1v2l-5 1v9l-2-1z" fill="#FDFDFD"/>
<path transform="translate(364,880)" d="m0 0h1l2 12h3l-2 4h-4l-1-14z" fill="#FDFDFD"/>
<path transform="translate(260,830)" d="m0 0 2 2-13 4-8 7v-3l8-7 4-2z" fill="#FDFDFD"/>
<path transform="translate(1559,943)" d="m0 0v3l-1 1 1 7 3 6h-2l-7-10v-3z" fill="#FDFDFD"/>
<path transform="translate(916,928)" d="m0 0h1l1 11-1 14h-1l-1-9v-15z" fill="#FDFDFD"/>
<path transform="translate(442,872)" d="m0 0h2l-2 22-2-3-1-3z" fill="#FCFCFC"/>
<path transform="translate(183,1133)" d="m0 0h1l-1 9-5 10-2 1 1-4 3-8z" fill="#FDFDFD"/>
<path transform="translate(200,1164)" d="m0 0v3l-8 3h-8l-2-1v-2h10l7-2z" fill="#FDFDFD"/>
<path transform="translate(1569,1117)" d="m0 0 5 2 7 3h10l-1 2-7 1-9-3z" fill="#FCFCFC"/>
<path transform="translate(438,1249)" d="m0 0 8 3h11l-2 2h-13l-4-3z" fill="#FCFAFA"/>
<path transform="translate(507,1051)" d="m0 0h1v7l-2 8-3 6-1-2 4-17z" fill="#FDFDFD"/>
<path transform="translate(1224,1018)" d="m0 0h2l-2 9-4 9-3 2 2-6 4-10z" fill="#FDFDFD"/>
<path transform="translate(1113,1078)" d="m0 0h2l2 5 4 3-1 3-6-4-1-1z" fill="#FCFCFB"/>
<path transform="translate(577,808)" d="m0 0h2l2 6h3l-2 4-4 1z" fill="#FDFDFD"/>
<path transform="translate(984,877)" d="m0 0 4 2 2 2-1 4-7 7v-3l4-5-1-5z" fill="#FCFCFC"/>
<path transform="translate(940,550)" d="m0 0m-1 1m-1 1m-1 1 1 3-7 10-2-1 7-11z" fill="#FDFDFD"/>
<path transform="translate(1305,896)" d="m0 0h2l3 4-2 4-7 6-2-1 6-6h2z" fill="#FCFCFC"/>
<path transform="translate(200,896)" d="m0 0h1l1 5h2l-1 4-3 2-1-1v-8z" fill="#FDFDFD"/>
<path transform="translate(195,1018)" d="m0 0 2 1-4 6v2l2 1-1 2-5-2 2-5z" fill="#FDFDFD"/>
<path transform="translate(971,1026)" d="m0 0h1l3 15h-2l-3-9v-5z" fill="#FDFDFD"/>
<path transform="translate(398,1224)" d="m0 0 6 2-4 4-1 6h-1z" fill="#FDFDFD"/>
<path transform="translate(459,801)" d="m0 0 2 1-10 11-2-1z" fill="#FDFDFD"/>
</svg>
